<?xml version="1.0" encoding="iso-8859-1"?>
<!-- Generator: Adobe Illustrator 18.0.0, SVG Export Plug-In . SVG Version: 6.00 Build 0)  -->
<!DOCTYPE svg PUBLIC "-//W3C//DTD SVG 1.1//EN" "http://www.w3.org/Graphics/SVG/1.1/DTD/svg11.dtd">
<svg version="1.1" id="Capa_1" xmlns="http://www.w3.org/2000/svg" xmlns:xlink="http://www.w3.org/1999/xlink" x="0px" y="0px"
	 viewBox="0 0 474.11 474.11" style="enable-background:new 0 0 474.11 474.11;" xml:space="preserve">
<g>
	<path d="M470.523,149.019l-48.918-48.886l3.385-3.378c4.829-4.807,4.829-12.603,0.016-17.41l-25.283-25.281
		c-4.814-4.799-12.609-4.799-17.408,0l-3.386,3.393l-4.146-4.162c-3.883-3.875-8.931-6.461-14.396-7.331l-93.487-14.986
		c-8.309-1.342-16.742,1.398-22.657,7.347l-10.855,10.815c-4.783,4.815-4.783,12.61,0.03,17.41l58.469,58.507l-25.639,25.639
		c4.084,6.265,7.453,13.137,9.675,20.662l5.668,19.226c3.059,10.505,1.662,21.624-3.588,30.857c1.724,1.22,3.401,2.524,4.923,4.053
		l16.384,16.376l54.726-54.703l39.134,39.181c4.799,4.806,12.595,4.806,17.394,0l59.959-59.921
		C475.291,161.63,475.321,153.833,470.523,149.019z"/>
	<path d="M129.899,341.467c0-9.899,3.852-19.21,10.856-26.189c5.435-5.443,12.253-8.985,19.66-10.297
		c1.288-7.205,4.705-14.1,10.249-19.652c5.435-5.421,12.253-8.953,19.661-10.265c1.32-7.401,4.844-14.21,10.279-19.637
		c5.421-5.435,12.238-8.977,19.63-10.297c0.574-3.198,1.74-6.211,3.122-9.131c-8.541-5.023-15.234-13.083-18.138-22.991l-0.296-1.01
		L97.071,319.812l-48.67,48.654c-17.16,17.192-17.144,44.965,0.032,62.133c17.128,17.152,44.911,17.16,62.071,0l46.604-46.581
		l-16.352-16.344C133.751,360.677,129.899,351.368,129.899,341.467z"/>
	<path d="M271.684,236.737c-1.414-1.422-3.138-2.26-4.799-3.192c-3.742,2.764-7.781,5.109-12.299,6.437
		c-3.649,1.072-7.423,1.616-11.197,1.616c-1.554,0-3.076-0.202-4.597-0.382c-4.721,8.099-3.975,18.496,2.982,25.445
		c-4.146-4.138-9.551-6.204-14.97-6.204c-5.419,0-10.824,2.066-14.954,6.204c-8.263,8.271-8.277,21.663,0,29.918
		c-4.131-4.131-9.567-6.189-14.97-6.189c-5.421,0-10.84,2.058-14.97,6.189c-8.263,8.269-8.263,21.656,0,29.933
		c-4.131-4.138-9.536-6.203-14.956-6.203c-5.404,0-10.823,2.066-14.954,6.203c-8.261,8.255-8.261,21.655,0,29.925l50.378,50.37
		c4.13,4.131,9.535,6.197,14.955,6.197c5.403,0,10.824-2.066,14.954-6.197c8.277-8.261,8.277-21.656,0-29.925
		c4.131,4.131,9.551,6.195,14.956,6.195c5.42,0,10.839-2.064,14.97-6.203c8.261-8.253,8.277-21.655,0-29.917
		c4.146,4.13,9.549,6.195,14.97,6.195c5.419,0,10.839-2.066,14.97-6.195c8.261-8.279,8.261-21.657,0-29.926
		c4.13,4.131,9.551,6.197,14.954,6.197c5.419,0,10.825-2.066,14.954-6.197c8.263-8.261,8.263-21.656,0-29.925L271.684,236.737z"/>
	<path d="M48.65,228.956c-6.663,6.663-6.663,17.472,0,24.133l47.567,47.566v-0.008l9.737-9.721l94.419-94.411l11.865-11.857
		c1.118,1.366,2.066,2.888,2.594,4.682l5.637,19.188c3.058,10.427,12.594,17.168,22.921,17.168c2.22,0,4.488-0.312,6.723-0.972
		c3.991-1.172,7.439-3.284,10.157-6.017c5.993-5.986,8.603-14.954,6.056-23.659l-5.652-19.194
		c-7.781-26.385-31.556-44.003-58.717-44.003c-1.336,0-2.686,0.046-4.038,0.132l-55.906,3.618l-0.654,0.646L48.65,228.956z"/>
	<path d="M90.797,157.933l11.865-11.865c3.322-3.316,4.969-7.663,4.984-12.011c0.016-4.387-1.646-8.775-4.984-12.121l-17.41-17.41
		c-3.198-3.206-7.547-5-12.066-5c-4.518,0-8.867,1.794-12.065,5L4.997,160.658c-6.663,6.663-6.663,17.472,0,24.133l17.408,17.408
		c3.2,3.208,7.531,5.001,12.067,5.001c4.534,0,8.867-1.794,12.066-5.001L90.797,157.933z"/>
</g>
<g>
</g>
<g>
</g>
<g>
</g>
<g>
</g>
<g>
</g>
<g>
</g>
<g>
</g>
<g>
</g>
<g>
</g>
<g>
</g>
<g>
</g>
<g>
</g>
<g>
</g>
<g>
</g>
<g>
</g>
</svg>
